<svg width="20" height="20" viewBox="0 0 20 20" fill="none" xmlns="http://www.w3.org/2000/svg">
<g id="Love Ping">
<path id="Vector" d="M0.195791 3.92157C0.195791 1.75574 1.95154 0 4.11735 0H15.8821C18.0479 0 19.8037 1.75575 19.8037 3.92157V9.60784C19.912 9.60784 19.9998 9.69569 19.9998 9.80406V15.4901C19.9998 17.7643 18.1563 19.6078 15.8821 19.6078C18.0479 19.6078 19.8037 17.8521 19.8037 15.6863V9.60784H18.7252C15.9638 9.60784 13.7252 11.8464 13.7252 14.6078V16.7647C13.7252 18.3349 12.4523 19.6078 10.8821 19.6078C9.31184 19.6078 8.03892 18.3349 8.03892 16.7647V14.6078C8.03892 11.8464 5.80035 9.60784 3.03892 9.60784H0.195791V15.6863C0.195791 17.8521 1.95154 19.6078 4.11735 19.6078C1.8434 19.6078 0 17.7644 0 15.4905V9.80363C0 9.69551 0.0876586 9.60784 0.195791 9.60784V3.92157Z" fill="url(#paint0_linear_1_92)"/>
<path id="Vector_2" d="M6.70881 14.2051C6.38772 13.8924 5.91019 13.9487 5.61547 14.2962L5.50004 14.4321L5.38462 14.2962C5.09048 13.9487 4.61236 13.8924 4.29128 14.2051C3.92332 14.5641 3.90398 15.2082 4.23327 15.5973L5.36704 16.9352C5.44028 17.0216 5.55922 17.0216 5.63246 16.9352L6.76623 15.5973C7.09611 15.2082 7.07677 14.5641 6.70881 14.2051Z" fill="url(#paint1_linear_1_92)"/>
<path id="Vector_3" d="M18.7088 14.2051C18.3877 13.8924 17.9102 13.9487 17.6155 14.2962L17.5 14.4321L17.3846 14.2962C17.0905 13.9487 16.6124 13.8924 16.2913 14.2051C15.9233 14.5641 15.904 15.2082 16.2333 15.5973L17.367 16.9352C17.4403 17.0216 17.5592 17.0216 17.6325 16.9352L18.7662 15.5973C19.0961 15.2082 19.0768 14.5641 18.7088 14.2051Z" fill="url(#paint2_linear_1_92)"/>
</g>
<defs>
<linearGradient id="paint0_linear_1_92" x1="0" y1="0" x2="19.604" y2="19.9959" gradientUnits="userSpaceOnUse">
<stop stop-color="#407FBA"/>
<stop offset="1" stop-color="#131B23"/>
</linearGradient>
<linearGradient id="paint1_linear_1_92" x1="4" y1="14" x2="7" y2="17" gradientUnits="userSpaceOnUse">
<stop stop-color="#BA4040"/>
<stop offset="1" stop-color="#650808"/>
</linearGradient>
<linearGradient id="paint2_linear_1_92" x1="16" y1="14" x2="19" y2="17" gradientUnits="userSpaceOnUse">
<stop stop-color="#BA4040"/>
<stop offset="1" stop-color="#650808"/>
</linearGradient>
</defs>
</svg>
